<svg width="150" height="150" viewBox="0 0 150 150" fill="none" xmlns="http://www.w3.org/2000/svg">
<g clip-path="url(#clip0_349_929)">
<g clip-path="url(#clip1_349_929)">
<path fill-rule="evenodd" clip-rule="evenodd" d="M30.75 12H118.25C128.605 12 137 20.3947 137 30.75V118.25C137 128.605 128.605 137 118.25 137H96.7248C96.6367 135.773 96.1281 133.826 93.7871 133.826C90.6133 133.826 89.8809 132.361 89.8809 130.896L90.125 113.807C90.125 107.947 88.1719 104.041 85.7305 102.088C99.6465 100.623 114.295 95.252 114.295 71.3262C114.295 64.4902 111.854 58.875 107.947 54.4805C108.68 53.0156 110.633 46.668 107.215 38.123C107.215 38.123 102.088 36.4141 90.125 44.4707C79.8711 41.541 69.1289 41.541 58.875 44.4707C46.9121 36.4141 41.7852 38.123 41.7852 38.123C38.3672 46.668 40.3203 53.0156 41.0527 54.4805C37.1465 58.875 34.7051 64.4902 34.7051 71.3262C34.7051 95.252 49.1094 100.623 63.0254 102.088C61.3164 103.797 59.6074 106.482 59.1191 110.633C55.457 112.098 46.4238 114.783 41.0527 105.262C41.0527 105.262 37.6348 99.4023 31.2871 98.9141C31.2871 98.9141 25.1836 98.9141 31.043 102.82C31.043 102.82 34.9492 104.529 37.8789 111.854C37.8789 111.854 41.541 122.596 58.875 118.689L59.1191 130.896C59.1191 132.361 58.3867 133.826 55.2129 133.826C52.8719 133.826 52.3633 135.773 52.2752 137H30.75C20.3947 137 12 128.605 12 118.25V30.75C12 20.3947 20.3947 12 30.75 12Z" fill="url(#paint0_linear_349_929)"/>
</g>
</g>
<defs>
<linearGradient id="paint0_linear_349_929" x1="74.5" y1="12" x2="74.5" y2="137" gradientUnits="userSpaceOnUse">
<stop stop-color="#0519E3"/>
<stop offset="1" stop-color="#EC5AD9"/>
</linearGradient>
<clipPath id="clip0_349_929">
<rect width="150" height="150" fill="white"/>
</clipPath>
<clipPath id="clip1_349_929">
<rect width="512" height="512" fill="white" transform="translate(-191 -187)"/>
</clipPath>
</defs>
</svg>
