<svg width="150" height="150" viewBox="0 0 150 150" fill="none" xmlns="http://www.w3.org/2000/svg">
<g clip-path="url(#clip0_349_930)">
<path d="M26.1345 12.381C17.3659 12.381 11 18.4297 11 26.7577C11 35.0828 17.2396 41.1259 25.8314 41.1259C30.2887 41.1259 34.1284 39.6804 36.9381 36.9465C39.6327 34.3221 41.1175 30.7041 41.1147 26.6931C40.9182 18.2669 34.7572 12.381 26.1345 12.381ZM33.0253 32.9243C31.2851 34.6168 28.7954 35.5122 25.8314 35.5122C20.4058 35.5122 16.6137 31.9138 16.6137 26.7577C16.6137 21.5173 20.4394 17.9947 26.1345 17.9947C31.7005 17.9947 35.3775 21.4611 35.5038 26.7605C35.501 29.18 34.6224 31.3665 33.0253 32.9243Z" fill="url(#paint0_linear_349_930)"/>
<path d="M13.6918 138.619H38.9197V45.8667H13.6918V138.619ZM19.3055 51.4804H33.306V133.003H19.3055V51.4804Z" fill="url(#paint1_linear_349_930)"/>
<path d="M105.445 45.8667C93.746 45.8667 86.5829 49.9058 82.4344 53.7034L81.6456 45.8667H53.1028V138.616H81.0562V89.8697C81.0562 87.7702 81.9067 83.4111 82.44 82.2603C85.8166 74.9878 90.3721 74.9878 97.2714 74.9878C105.218 74.9878 111.932 82.4399 111.932 91.2591V138.622H140V86.218C140 58.4919 122.087 45.8667 105.445 45.8667ZM134.386 133.005H117.545V91.2563C117.545 79.3917 108.26 69.3713 97.2714 69.3713C90.2206 69.3713 82.2323 69.3713 77.3455 79.8969C76.3379 82.0723 75.4397 87.2846 75.4397 89.8697V133.005H58.7165V51.4804H76.568L77.7132 62.8313H82.3137L83.1361 61.5037C85.0082 58.4891 90.9279 51.4776 105.445 51.4776C119.384 51.4776 134.386 62.3457 134.386 86.2095V133.005Z" fill="url(#paint2_linear_349_930)"/>
</g>
<defs>
<linearGradient id="paint0_linear_349_930" x1="26.0573" y1="12.381" x2="26.0573" y2="41.1259" gradientUnits="userSpaceOnUse">
<stop stop-color="#0018FF"/>
<stop offset="1" stop-color="#EC5AD9"/>
</linearGradient>
<linearGradient id="paint1_linear_349_930" x1="26.3058" y1="45.8667" x2="26.3058" y2="138.619" gradientUnits="userSpaceOnUse">
<stop stop-color="#0018FF"/>
<stop offset="1" stop-color="#EC5AD9"/>
</linearGradient>
<linearGradient id="paint2_linear_349_930" x1="96.5514" y1="45.8667" x2="96.5514" y2="138.622" gradientUnits="userSpaceOnUse">
<stop stop-color="#0018FF"/>
<stop offset="1" stop-color="#EC5AD9"/>
</linearGradient>
<clipPath id="clip0_349_930">
<rect width="129" height="129" fill="white" transform="translate(11 11)"/>
</clipPath>
</defs>
</svg>
