<svg width="150" height="150" viewBox="0 0 150 150" fill="none" xmlns="http://www.w3.org/2000/svg">
<g clip-path="url(#clip0_349_931)">
<g clip-path="url(#clip1_349_931)">
<path d="M119.648 30.4102C110.127 20.918 99.9902 27.0703 93.6328 33.3984L33.6328 93.3984C27.2754 99.7559 20.625 109.424 30.6445 119.414C40.6348 129.404 50.2734 122.754 56.6309 116.396L116.631 56.3965C122.988 50.0684 129.141 39.9023 119.648 30.4102ZM62.3145 27.9492L75.0293 40.6641L87.9492 27.7148C88.8281 26.8359 89.707 26.0156 90.6152 25.2539C89.2676 18.4277 85.3711 12.2461 75 12.2461C64.6289 12.2461 60.7324 18.457 59.4141 25.2832C60.3809 26.1328 61.3477 26.9824 62.3145 27.9492ZM87.9492 122.314L75.0293 109.395L62.3145 122.08C61.3477 123.047 60.4102 123.955 59.4434 124.775C60.9082 131.748 65.0098 138.105 75 138.105C85.0195 138.105 89.1504 131.689 90.5859 124.717C89.707 123.955 88.8281 123.193 87.9492 122.314ZM56.9238 58.7402H32.4316C23.4375 58.7402 11.9238 61.582 11.9238 75C11.9238 85.0488 18.3398 89.1504 25.3418 90.5859C26.1621 89.6484 56.9238 58.7402 56.9238 58.7402ZM124.746 59.4141C123.984 60.293 93.1348 91.2891 93.1348 91.2891H117.275C126.27 91.2891 137.783 89.1504 137.783 75C137.783 64.6582 131.602 60.7617 124.746 59.4141ZM64.9512 50.7129L69.3164 46.3477L56.6309 33.6328C50.2734 27.2754 40.6348 20.625 30.6152 30.6445C23.291 37.9688 24.9316 45.1172 28.7988 50.8887C30 50.8008 64.9512 50.7129 64.9512 50.7129ZM85.0781 99.3164L80.6836 103.711L93.6328 116.631C99.9902 122.988 110.127 129.141 119.619 119.648C126.709 112.559 125.098 105.088 121.172 99.1406C119.912 99.2285 85.0781 99.3164 85.0781 99.3164Z" fill="url(#paint0_linear_349_931)"/>
</g>
</g>
<defs>
<linearGradient id="paint0_linear_349_931" x1="74.8535" y1="12.2461" x2="74.8535" y2="138.105" gradientUnits="userSpaceOnUse">
<stop stop-color="#0018FF"/>
<stop offset="1" stop-color="#EC5AD9"/>
</linearGradient>
<clipPath id="clip0_349_931">
<rect width="150" height="150" fill="white"/>
</clipPath>
<clipPath id="clip1_349_931">
<rect width="150" height="150" fill="white"/>
</clipPath>
</defs>
</svg>
