<svg width="129" height="129" viewBox="0 0 129 129" fill="none" xmlns="http://www.w3.org/2000/svg">
<g clip-path="url(#clip0_349_951)">
<path d="M15.1345 1.38098C6.36593 1.38098 0 7.42974 0 15.7577C0 24.0828 6.23963 30.1259 14.8314 30.1259C19.2887 30.1259 23.1284 28.6804 25.9381 25.9465C28.6327 23.3221 30.1175 19.7041 30.1147 15.6931C29.9182 7.26694 23.7572 1.38098 15.1345 1.38098ZM22.0253 21.9243C20.2851 23.6168 17.7954 24.5122 14.8314 24.5122C9.40575 24.5122 5.6137 20.9138 5.6137 15.7577C5.6137 10.5173 9.43943 6.99468 15.1345 6.99468C20.7005 6.99468 24.3775 10.4611 24.5038 15.7605C24.501 18.18 23.6224 20.3665 22.0253 21.9243Z" fill="#D1C7C4"/>
<path d="M2.69177 127.619H27.9197V34.8667H2.69177V127.619ZM8.30547 40.4804H22.306V122.003H8.30547V40.4804Z" fill="#D1C7C4"/>
<path d="M94.4449 34.8667C82.746 34.8667 75.5829 38.9058 71.4344 42.7034L70.6456 34.8667H42.1028V127.616H70.0562V78.8697C70.0562 76.7702 70.9067 72.4111 71.44 71.2603C74.8166 63.9878 79.3721 63.9878 86.2714 63.9878C94.2176 63.9878 100.932 71.44 100.932 80.2591V127.622H129V75.218C129 47.4919 111.087 34.8667 94.4449 34.8667ZM123.386 122.005H106.545V80.2563C106.545 68.3917 97.2602 58.3713 86.2714 58.3713C79.2206 58.3713 71.2323 58.3713 66.3455 68.8969C65.3379 71.0722 64.4397 76.2846 64.4397 78.8697V122.005H47.7165V40.4804H65.568L66.7132 51.8313H71.3137L72.1361 50.5037C74.0082 47.4891 79.9279 40.4776 94.4449 40.4776C108.384 40.4776 123.386 51.3457 123.386 75.2095V122.005Z" fill="#D1C7C4"/>
</g>
<defs>
<clipPath id="clip0_349_951">
<rect width="129" height="129" fill="white"/>
</clipPath>
</defs>
</svg>
