<svg width="150" height="150" viewBox="0 0 150 150" fill="none" xmlns="http://www.w3.org/2000/svg">
<g clip-path="url(#clip0_343_945)">
<path d="M137.803 62.8024C131.878 62.8024 126.936 67.0461 125.835 72.651H103.304C102.806 66.5726 100.392 61.0446 96.6689 56.6524L112.608 40.7129C114.609 42.0624 116.958 42.7904 119.409 42.7904C122.664 42.7904 125.73 41.5179 128.032 39.2155C132.773 34.457 132.773 26.7154 128.032 21.9745C125.73 19.6722 122.67 18.3996 119.409 18.3996C116.154 18.3996 113.088 19.6721 110.785 21.9745C106.601 26.1589 106.104 32.6576 109.288 37.3988L93.3486 53.3322C88.9571 49.6036 83.4232 47.1946 77.3501 46.6975V24.1656C82.955 23.0766 87.1986 18.1227 87.1986 12.1982C87.1986 5.46882 81.7298 0 75.0004 0C68.271 0 62.8022 5.46882 62.8022 12.1982C62.8022 18.1228 67.0459 23.0648 72.6507 24.1656V46.6975C66.5724 47.1947 61.0444 49.6095 56.6522 53.3322L40.7129 37.3928C43.8971 32.652 43.4116 26.1474 39.2155 21.9684C36.9132 19.6662 33.8532 18.3936 30.5921 18.3936C27.337 18.3936 24.2711 19.6661 21.9688 21.9684C17.228 26.727 17.228 34.4685 21.9688 39.2094C24.2711 41.5117 27.3311 42.7843 30.5921 42.7843C33.0483 42.7843 35.398 42.0563 37.3926 40.7069L53.332 56.6509C49.6033 61.0424 47.1944 66.5764 46.6973 72.6495H24.1655C23.0764 67.0446 18.1226 62.8009 12.1982 62.8009C5.46879 62.8009 0 68.2697 0 74.9992C0 81.7286 5.46879 87.1974 12.1982 87.1974C18.1227 87.1974 23.0647 82.9538 24.1655 77.3489H46.6973C47.1944 83.4272 49.6092 88.9553 53.332 93.3475L37.3926 109.287C35.3921 107.937 33.0424 107.209 30.5921 107.209C27.337 107.209 24.2711 108.482 21.9688 110.784C19.6665 113.087 18.3939 116.147 18.3939 119.408C18.3939 122.669 19.6664 125.729 21.9688 128.031C24.348 130.41 27.4671 131.594 30.5921 131.594C33.7112 131.594 36.8362 130.41 39.2155 128.031C41.5177 125.729 42.7903 122.669 42.7903 119.408C42.7903 116.952 42.0623 114.602 40.7129 112.607L56.6523 96.6678C56.8476 96.8335 57.0607 96.9992 57.256 97.1649C57.3921 97.3011 57.546 97.4253 57.6939 97.5141C61.9079 100.757 67.0453 102.847 72.6324 103.302V125.834C67.0276 126.923 62.7839 131.877 62.7839 137.802C62.7839 144.531 68.2527 150 74.9821 150C81.7115 150 87.1803 144.531 87.1803 137.802C87.1803 131.877 82.9367 126.935 77.3318 125.834V103.302C82.9249 102.847 88.0739 100.757 92.288 97.5141C92.4419 97.4253 92.5899 97.3011 92.7142 97.1827C92.9272 97.017 93.1403 96.8512 93.3356 96.6678L109.275 112.607C106.091 117.348 106.594 123.853 110.772 128.032C113.152 130.411 116.271 131.595 119.396 131.595C122.515 131.595 125.64 130.411 128.019 128.032C132.778 123.273 132.778 115.549 128.019 110.791C125.717 108.488 122.657 107.216 119.396 107.216C116.94 107.216 114.59 107.944 112.595 109.293L96.668 93.3491C100.397 88.9576 102.806 83.4236 103.303 77.3506H125.835C126.924 82.9554 131.877 87.1991 137.802 87.1991C144.531 87.1991 150 81.7303 150 75.0008C150 68.2714 144.532 62.8024 137.803 62.8024ZM114.104 25.2901C115.513 23.8815 117.407 23.0944 119.407 23.0944C121.408 23.0944 123.302 23.8697 124.71 25.2901C127.634 28.2139 127.634 32.9843 124.71 35.914C123.302 37.3226 121.408 38.1097 119.407 38.1097C117.407 38.1097 115.513 37.3344 114.104 35.914C111.18 32.9724 111.18 28.2139 114.104 25.2901ZM35.8966 35.8962C34.4702 37.3226 32.594 38.092 30.5936 38.092C28.5931 38.092 26.6992 37.3167 25.2905 35.8962C22.3668 32.9724 22.3668 28.2021 25.2905 25.2724C26.6992 23.8638 28.5931 23.0766 30.5936 23.0766C32.594 23.0766 34.488 23.852 35.8966 25.2724C38.8204 28.2139 38.8204 32.9724 35.8966 35.8962ZM12.1981 82.4995C8.061 82.4995 4.69933 79.1377 4.69933 75.0007C4.69933 70.8637 8.06115 67.5019 12.1981 67.5019C16.3351 67.5019 19.6969 70.8637 19.6969 75.0007C19.6969 79.1377 16.3351 82.4995 12.1981 82.4995ZM35.8966 124.71C32.9728 127.634 28.2143 127.634 25.2905 124.71C23.8819 123.302 23.0948 121.408 23.0948 119.407C23.0948 117.407 23.8701 115.513 25.2905 114.104C26.6992 112.696 28.5931 111.908 30.5936 111.908C32.594 111.908 34.488 112.684 35.8966 114.104C37.323 115.513 38.0924 117.407 38.0924 119.407C38.0924 121.408 37.317 123.29 35.8966 124.71ZM114.104 114.104C115.531 112.678 117.407 111.908 119.407 111.908C121.408 111.908 123.302 112.684 124.71 114.104C127.634 117.028 127.634 121.787 124.71 124.71C121.786 127.634 117.028 127.634 114.104 124.71C111.18 121.787 111.18 117.028 114.104 114.104ZM67.5012 12.1976C67.5012 8.0605 70.863 4.69881 74.9999 4.69881C79.1369 4.69881 82.4987 8.06065 82.4987 12.1976C82.4987 16.3346 79.1369 19.6965 74.9999 19.6965C70.863 19.6965 67.5012 16.3346 67.5012 12.1976ZM82.4987 137.801C82.4987 141.938 79.1369 145.3 74.9999 145.3C70.863 145.3 67.5012 141.938 67.5012 137.801C67.5012 133.664 70.863 130.302 74.9999 130.302C79.1369 130.302 82.4987 133.664 82.4987 137.801ZM88.7133 94.3178C84.8366 97.0758 80.1077 98.7093 74.9999 98.7093C69.8922 98.7093 65.1515 97.0758 61.2748 94.3178V90.5121C61.2748 85.6056 65.258 81.6165 70.1704 81.6165H79.8059C84.7124 81.6165 88.7015 85.5997 88.7015 90.5121L88.6955 94.3178H88.7133ZM93.3948 89.938C93.0929 82.7233 87.1212 76.9409 79.8177 76.9409H70.1822C62.8787 76.9409 56.9069 82.7115 56.6051 89.938C53.2848 85.8601 51.2843 80.6636 51.2843 74.9995C51.2843 61.9253 61.9199 51.2903 74.9934 51.2903C88.0669 51.2903 98.6919 61.9259 98.6919 74.9995C98.7097 80.6518 96.7092 85.866 93.3948 89.938ZM137.802 82.4983C133.665 82.4983 130.304 79.1365 130.304 74.9995C130.304 70.8625 133.665 67.5007 137.802 67.5007C141.939 67.5007 145.301 70.8625 145.301 74.9995C145.301 79.1365 141.939 82.4983 137.802 82.4983ZM75.0009 56.1482C69.3368 56.1482 64.7143 60.7529 64.7143 66.4228C64.7143 72.0869 69.319 76.7093 75.0009 76.7093C80.6649 76.7093 85.2754 72.1046 85.2754 66.4228C85.2872 60.7587 80.6648 56.1482 75.0009 56.1482ZM75.0009 72.0164C71.9113 72.0164 69.4078 69.501 69.4078 66.4234C69.4078 63.3458 71.9233 60.8303 75.0009 60.8303C78.0784 60.8303 80.5939 63.3279 80.5939 66.4234C80.5939 69.501 78.0904 72.0164 75.0009 72.0164Z" fill="url(#paint0_linear_343_945)"/>
</g>
<defs>
<linearGradient id="paint0_linear_343_945" x1="75" y1="0" x2="75" y2="150" gradientUnits="userSpaceOnUse">
<stop stop-color="#0218FF"/>
<stop offset="1" stop-color="#EC5AD9"/>
</linearGradient>
<clipPath id="clip0_343_945">
<rect width="150" height="150" fill="white"/>
</clipPath>
</defs>
</svg>
