<svg width="120" height="150" viewBox="0 0 120 150" fill="none" xmlns="http://www.w3.org/2000/svg">
<path d="M60.0094 0H60.0409C62.8094 0.0315087 64.7598 1.51236 66.7291 3.00584L66.8801 3.13187C68.0378 4.00778 69.2018 4.87105 70.2966 5.06011C71.2404 5.22395 72.549 4.76395 73.8451 4.30393C76.0725 3.51625 78.2935 2.73485 80.8102 3.67379C83.4088 4.64422 84.7489 6.72367 86.0953 8.80952L86.1456 8.90404C86.9636 10.1643 87.7815 11.4183 88.7379 11.9665C89.5748 12.4454 90.959 12.458 92.3307 12.4706C94.7028 12.4958 97.0622 12.521 99.1007 14.2603C101.202 16.0625 101.756 18.4634 102.303 20.8832L102.322 20.9777C102.656 22.4334 103.002 23.8953 103.725 24.7587C104.342 25.496 105.632 25.9812 106.915 26.4601C109.136 27.2919 111.338 28.1174 112.66 30.4554C114.031 32.8751 113.723 35.3264 113.421 37.7778C113.232 39.3027 113.037 40.8465 113.427 41.9115C113.748 42.8 114.812 43.7138 115.856 44.6023C117.655 46.1462 119.449 47.6774 119.889 50.3304C120.342 53.0527 119.216 55.2582 118.09 57.47C117.397 58.8249 116.699 60.1923 116.699 61.3581C116.699 62.3349 117.379 63.5322 118.046 64.7168C119.216 66.7836 120.367 68.838 119.889 71.472C119.386 74.2068 117.58 75.8894 115.762 77.5718C114.642 78.6115 113.503 79.6702 113.119 80.735C112.798 81.6299 113.025 83.0035 113.245 84.3647C113.629 86.7025 114.019 89.0278 112.653 91.3404C111.25 93.7287 108.979 94.6928 106.689 95.6633C105.286 96.2556 103.87 96.8543 103.134 97.7365C102.517 98.4738 102.266 99.835 102.014 101.183C101.58 103.515 101.152 105.834 99.0756 107.548C97.0246 109.243 94.6713 109.426 92.2931 109.546L105.399 132.282C105.701 132.735 105.852 133.296 105.789 133.876C105.651 135.199 104.462 136.157 103.134 136.018L87.7126 134.361L81.4334 148.559C81.2321 149.006 80.8923 149.403 80.433 149.674C79.2816 150.342 77.803 149.951 77.1423 148.798L61.4818 121.626C61.0162 121.726 60.5128 121.783 59.9906 121.777C59.4809 121.77 58.9902 121.72 58.5246 121.619L42.8703 148.785C42.2097 149.938 40.7374 150.335 39.5859 149.674C39.1203 149.409 38.7868 149.012 38.5855 148.558L32.3 134.367L16.8786 136.025C15.5573 136.163 14.3682 135.199 14.2235 133.882C14.1606 133.302 14.3179 132.748 14.6136 132.288L27.8518 109.319H27.6756C25.3035 109.294 22.9378 109.269 20.8993 107.53C18.7978 105.727 18.2442 103.327 17.6967 100.907L17.6778 100.812C17.3444 99.3566 16.9983 97.8946 16.2748 97.0313C15.6645 96.3003 14.362 95.8088 13.0785 95.3298L12.9778 95.292C10.7945 94.4729 8.63641 93.6348 7.34027 91.3347C5.96864 88.915 6.27693 86.4637 6.57894 84.0123C6.7677 82.4874 6.96275 80.9436 6.57265 79.8786C6.25176 78.99 5.18843 78.0763 4.14401 77.1878C2.34451 75.6439 0.551298 74.1127 0.110927 71.4597C-0.342088 68.7374 0.784159 66.5382 1.91042 64.3263C2.60253 62.9715 3.30093 61.6041 3.30093 60.4382C3.30093 59.4615 2.62139 58.2642 1.95446 57.0796C0.784175 55.0128 -0.367231 52.9584 0.110991 50.3181C0.614341 47.5959 2.42012 45.9133 4.24474 44.2183C5.35841 43.1723 6.49717 42.1199 6.88101 41.055C7.20818 40.1602 6.97538 38.7801 6.75517 37.4254C6.37137 35.0876 5.98127 32.7686 7.34661 30.4497C8.74969 28.0613 11.021 27.0973 13.3113 26.1268C14.7143 25.5345 16.13 24.9358 16.8661 24.0536C17.4827 23.3163 17.7344 21.9551 17.9861 20.6067C18.4202 18.2751 18.8481 15.9562 20.9243 14.2422C23.0573 12.4777 25.5238 12.3517 28.0027 12.232C29.5253 12.1564 31.0604 12.0744 32.0483 11.5073C32.8851 11.0221 33.5898 9.83105 34.2819 8.65279C35.4836 6.59856 36.6854 4.57579 39.2147 3.67466C41.8133 2.74834 44.1727 3.47932 46.5448 4.21029C47.9982 4.65769 49.4705 5.1177 50.6093 4.90975C51.5593 4.74591 52.6227 3.8574 53.6796 2.99409C55.5042 1.48804 57.3163 0.000832083 59.9967 0.0134149L60.0094 0ZM62.2116 36.3789L69.0509 50.0469L85.1581 52.9645C86.4605 53.1977 87.3351 54.4517 87.1022 55.7624C87.0078 56.2728 86.7624 56.7139 86.4227 57.0542L75.4685 67.8929L77.677 84.1376C77.8531 85.4609 76.9282 86.6708 75.6069 86.8536C75.0972 86.9229 74.6064 86.8221 74.1786 86.6078L60.5 79.5124L45.7583 86.6394C44.5628 87.2192 43.122 86.7151 42.5431 85.5178C42.304 85.0263 42.2537 84.497 42.3481 84.0054L44.8397 68.8567L33.5269 57.0162C32.602 56.0584 32.6335 54.5208 33.5962 53.6071C33.9737 53.2479 34.433 53.0336 34.9049 52.9643L50.1312 50.6454L57.8765 36.2087C58.5056 35.0303 59.9717 34.5955 61.1419 35.2256C61.6389 35.4966 62.0039 35.9125 62.2115 36.3977L62.2116 36.3789ZM65.2884 53.2802L59.9277 42.5677L53.8687 53.86C53.5352 54.5658 52.8683 55.1014 52.0441 55.2274L40.2217 57.0234L49.1562 66.3685C49.6659 66.8979 49.9238 67.654 49.798 68.4291L47.8476 80.2569L59.4939 74.6297C60.1482 74.3146 60.9473 74.2957 61.6457 74.6612L72.279 80.175L70.5362 67.3389C70.4418 66.6142 70.6746 65.8455 71.2346 65.2973L79.7475 56.8784L67.0254 54.572C66.3082 54.4397 65.6475 53.986 65.3015 53.2802L65.2884 53.2802ZM59.9968 16.5367C72.2283 16.5367 83.3024 21.5023 91.3109 29.5304L91.443 29.6754C99.3771 37.6973 104.285 48.7255 104.285 60.8985C104.285 73.1487 99.3268 84.2397 91.3109 92.2604C83.3013 100.282 72.2207 105.254 59.9969 105.254C47.7654 105.254 36.6914 100.289 28.6829 92.2604C20.6733 84.2386 15.709 73.141 15.709 60.8985C15.709 48.6548 20.667 37.5703 28.6829 29.5415C36.6925 21.507 47.7731 16.5367 59.9968 16.5367ZM87.8945 32.9525C80.7595 25.8066 70.8869 21.3766 59.9968 21.3766C49.0994 21.3766 39.2331 25.8066 32.0992 32.9525C24.9579 40.0984 20.541 49.9861 20.541 60.8928C20.541 71.807 24.9642 81.6884 32.0992 88.8331C39.2342 95.9791 49.1068 100.409 59.9968 100.409C70.8943 100.409 80.7606 95.9791 87.8945 88.8331C95.0295 81.6872 99.4527 71.7996 99.4527 60.8928C99.4527 50.0353 95.0862 40.2054 88.014 33.059L87.8945 32.9455L87.8945 32.9525ZM87.3912 110.713C86.7934 111.305 86.2398 112.231 85.6986 113.158C84.4969 115.206 83.2951 117.235 80.7658 118.13C78.1672 119.056 75.8016 118.325 73.4357 117.594C71.9823 117.147 70.51 116.693 69.3712 116.894C68.4212 117.058 67.3578 117.947 66.3009 118.81L65.6906 119.308L78.9288 142.276L83.9999 130.814C84.4467 129.787 85.5289 129.232 86.586 129.402L98.9244 130.726L87.3912 110.713ZM54.2023 119.484L53.2648 118.785C52.0442 117.859 50.8173 116.926 49.6909 116.731C48.7535 116.567 47.4385 117.027 46.1486 117.487C43.9151 118.275 41.7003 119.056 39.1836 118.117C36.5913 117.147 35.2574 115.073 33.9048 112.981C33.4392 112.263 32.9673 111.538 32.4702 110.94L21.0694 130.727L33.4078 129.404C34.4648 129.234 35.5407 129.788 35.9938 130.815L41.065 142.278L54.2088 119.485L54.2023 119.484ZM63.8226 6.8649C62.4762 5.85035 61.136 4.82955 59.9846 4.82326C59.0408 4.81065 57.8957 5.75587 56.7443 6.70745C55.1902 7.98666 53.6236 9.28484 51.4402 9.6628C49.1878 10.0598 47.1491 9.42965 45.1294 8.8058C43.5313 8.31428 41.9331 7.81647 40.8195 8.21346C39.9449 8.52224 39.1899 9.80144 38.4348 11.0806C37.4155 12.8072 36.3774 14.5589 34.4647 15.6617C32.4701 16.8212 30.3372 16.922 28.2294 17.0291C26.5557 17.111 24.8885 17.1993 23.9762 17.9428C23.2589 18.5352 22.9883 19.9908 22.7178 21.4591C22.3529 23.4378 21.9753 25.4417 20.5597 27.1367C19.0875 28.9012 17.1181 29.7267 15.1738 30.5458C13.626 31.2012 12.0845 31.8502 11.493 32.8585C11.0211 33.6588 11.2602 35.1269 11.5056 36.6016C11.8328 38.5803 12.1662 40.5842 11.4112 42.6699C10.6247 44.8377 9.06439 46.2869 7.52277 47.7237C6.28327 48.8579 5.06272 50.0048 4.84865 51.158C4.67877 52.0843 5.40234 53.3698 6.13849 54.6742C7.12631 56.4387 8.12676 58.2093 8.12676 60.4149C8.12676 62.6961 7.15152 64.6055 6.18262 66.4958C5.4213 67.9892 4.65999 69.4765 4.85503 70.6484C5.01233 71.5748 6.13858 72.5389 7.26483 73.5093C8.78746 74.8137 10.3289 76.1307 11.084 78.2228C11.8705 80.3969 11.6125 82.5077 11.3483 84.5936C11.1406 86.2699 10.933 87.9397 11.5056 88.9479C11.9523 89.7482 13.2862 90.2586 14.6389 90.769L14.7459 90.8068C16.6272 91.5126 18.5273 92.2247 19.943 93.9261C21.3901 95.659 21.8809 97.7006 22.3402 99.7361L22.3654 99.8306C22.7429 101.469 23.1141 103.101 24.0013 103.87C24.7122 104.475 26.1909 104.494 27.6756 104.506C29.626 104.525 31.5892 104.544 33.4642 105.565L33.6341 105.66C35.6287 106.819 36.7863 108.609 37.9315 110.379C38.8375 111.791 39.7373 113.19 40.8384 113.599C41.7067 113.921 43.1098 113.429 44.5128 112.931C46.4004 112.264 48.3131 111.583 50.49 111.974C52.7614 112.377 54.4601 113.663 56.1401 114.935C57.4865 115.956 58.8205 116.971 59.9844 116.977C60.3745 116.983 60.8086 116.819 61.2679 116.548L61.2805 116.536L61.3119 116.511C61.916 116.151 62.564 115.616 63.2121 115.087C64.7662 113.807 66.3329 112.509 68.5162 112.131C70.7686 111.734 72.8073 112.364 74.827 112.982C76.4251 113.473 78.0233 113.971 79.137 113.574C80.0115 113.265 80.7665 111.986 81.5216 110.707C82.5095 109.031 83.5099 107.336 85.3345 106.221L85.4918 106.126C87.4864 104.967 89.6193 104.866 91.7271 104.759C93.4008 104.677 95.0681 104.588 95.9804 103.845C96.6976 103.252 96.9682 101.797 97.2387 100.329C97.6037 98.3498 97.9812 96.3459 99.3968 94.651C100.869 92.8865 102.838 92.061 104.783 91.2418C106.331 90.5865 107.872 89.9374 108.464 88.9292C108.935 88.1226 108.696 86.6607 108.451 85.1861C108.124 83.2074 107.79 81.2099 108.545 79.1178C109.332 76.95 110.892 75.5007 112.434 74.064C113.667 72.9171 114.894 71.7765 115.108 70.6297C115.278 69.7034 114.554 68.4179 113.818 67.1198C112.83 65.3553 111.83 63.5846 111.83 61.3791C111.83 59.0979 112.805 57.1885 113.774 55.2982C114.535 53.8047 115.297 52.3112 115.101 51.1455C114.95 50.2192 113.818 49.255 112.692 48.291C111.169 46.9866 109.628 45.6696 108.873 43.5774C108.086 41.4034 108.344 39.2925 108.608 37.2067C108.816 35.5304 109.024 33.8606 108.451 32.8524C107.985 32.0332 106.607 31.5101 105.211 30.9872C103.329 30.2814 101.429 29.5693 100.001 27.8679C98.5538 26.1351 98.0631 24.0934 97.6037 22.0579L97.5786 21.9634C97.201 20.325 96.8298 18.693 95.9427 17.9241C95.2317 17.3192 93.7531 17.3003 92.2683 17.2877C90.2612 17.2688 88.2227 17.2499 86.31 16.1408C84.3468 15.0002 83.2018 13.2609 82.0818 11.5218L82.0063 11.4146C81.1003 10.0031 80.188 8.59787 79.0995 8.19457C78.2312 7.8732 76.828 8.36471 75.4251 8.86253C73.5375 9.53048 71.6247 10.2111 69.4416 9.82035C67.2582 9.43596 65.5847 8.20717 63.9487 6.96583L63.7977 6.8587L63.8226 6.8649Z" fill="url(#paint0_linear_343_932)"/>
<defs>
<linearGradient id="paint0_linear_343_932" x1="60" y1="0" x2="60" y2="150" gradientUnits="userSpaceOnUse">
<stop stop-color="#0018FF"/>
<stop offset="1" stop-color="#EC5AD9"/>
</linearGradient>
</defs>
</svg>
