<svg width="150" height="150" viewBox="0 0 150 150" fill="none" xmlns="http://www.w3.org/2000/svg">
<g clip-path="url(#clip0_343_944)">
<path d="M35.0093 111.263C39.0527 111.263 42.7024 108.827 44.246 105.091C45.7959 101.355 44.9397 97.0566 42.0774 94.2015C39.2213 91.3402 34.9217 90.4844 31.1846 92.0336C27.4474 93.5767 25.0101 97.2252 25.0101 101.267C25.0163 106.784 29.4911 111.257 35.0093 111.263ZM35.0093 96.2695C37.0341 96.2695 38.8527 97.4877 39.6277 99.3557C40.4026 101.224 39.9714 103.373 38.5465 104.803C37.1154 106.228 34.9655 106.659 33.0971 105.884C31.2284 105.109 30.0098 103.291 30.0098 101.267C30.0161 98.5059 32.247 96.2757 35.0093 96.2695ZM35.0093 113.763C25.1977 113.763 17.5101 119.254 17.5101 126.258C17.5101 133.261 25.1969 138.752 35.0093 138.752C44.8218 138.752 52.5086 133.261 52.5086 126.258C52.5086 119.254 44.8218 113.763 35.0093 113.763ZM35.0093 133.755C28.2349 133.755 22.5104 130.319 22.5104 126.258C22.5104 122.197 28.2349 118.761 35.0093 118.761C41.7838 118.761 47.5083 122.197 47.5083 126.258C47.5083 130.319 41.7838 133.755 35.0093 133.755ZM115.002 111.265C119.046 111.265 122.696 108.828 124.239 105.092C125.789 101.356 124.933 97.0582 122.07 94.2031C119.214 91.3418 114.915 90.486 111.178 92.0352C107.441 93.5783 105.003 97.2268 105.003 101.269C105.009 106.785 109.484 111.259 115.002 111.265ZM115.002 96.2711C117.027 96.2711 118.846 97.4893 119.621 99.3573C120.396 101.225 119.964 103.374 118.54 104.805C117.108 106.229 114.959 106.66 113.09 105.886C111.221 105.111 110.003 103.293 110.003 101.269C110.009 98.5075 112.24 96.2773 115.002 96.2711ZM115.002 113.765C105.191 113.765 97.5031 119.256 97.5031 126.259C97.5031 133.263 105.19 138.754 115.002 138.754C124.815 138.754 132.502 133.263 132.502 126.259C132.502 119.256 124.815 113.765 115.002 113.765ZM115.002 133.756C108.228 133.756 102.503 130.32 102.503 126.259C102.503 122.198 108.228 118.762 115.002 118.762C121.777 118.762 127.501 122.198 127.501 126.259C127.501 130.32 121.777 133.756 115.002 133.756ZM115.002 80.0282C111.553 80.0282 108.122 80.5405 104.822 81.5464L95.654 63.2292V63.2355C103.653 57.388 108.797 48.4292 109.815 38.577C110.834 28.7248 107.628 18.9036 100.991 11.5515C94.3543 4.19824 84.9109 0 75.0062 0C65.1015 0 55.6575 4.19824 49.0213 11.5515C42.3844 18.9047 39.1784 28.7251 40.1971 38.577C41.2157 48.4292 46.3591 57.3883 54.3584 63.2355L45.1904 81.5526V81.5464C36.3036 78.8413 26.6976 79.7783 18.5047 84.1578C10.3054 88.5372 4.18722 95.9965 1.49977 104.887C-1.19376 113.783 -0.231279 123.378 4.1621 131.564C8.55548 139.748 16.0299 145.851 24.9283 148.52C33.8275 151.194 43.4259 150.219 51.6076 145.808C59.7882 141.398 65.8752 133.913 68.5309 125.011H81.4799C83.9672 133.338 89.4667 140.448 96.9097 144.946C104.353 149.438 113.203 151.006 121.733 149.338C130.27 147.664 137.876 142.878 143.069 135.906C148.262 128.934 150.675 120.282 149.837 111.629C148.993 102.976 144.963 94.9475 138.526 89.1067C132.083 83.2655 123.695 80.0282 115.002 80.0282ZM45.0085 35.0471C45.0085 27.0941 48.1708 19.4661 53.7952 13.8431C59.4197 8.22052 67.0504 5.05928 75.0062 5.05928C82.962 5.05928 90.5924 8.22052 96.2172 13.8431C101.842 19.4657 105.004 27.0939 105.004 35.0471C105.004 43.0002 101.842 50.6281 96.2172 56.251C90.5927 61.8736 82.962 65.0348 75.0062 65.0348C67.0506 65.0286 59.4263 61.8611 53.8016 56.2448C48.1834 50.6221 45.0147 43.0002 45.0085 35.0471ZM35.0093 145.001C27.0537 145.001 19.4232 141.84 13.7984 136.217C8.17391 130.595 5.01163 122.966 5.01163 115.013C5.01163 107.06 8.17391 99.4323 13.7984 93.8094C19.4229 88.1868 27.0536 85.0255 35.0093 85.0255C42.9651 85.0255 50.5955 88.1868 56.2203 93.8094C61.8448 99.432 65.0071 107.06 65.0071 115.013C65.0008 122.966 61.8323 130.588 56.2141 136.211C50.5896 141.827 42.9651 144.995 35.0093 145.001ZM69.6064 120.012C70.7438 112.59 69.4376 104.999 65.8755 98.3886C62.3132 91.7789 56.6887 86.5123 49.8641 83.3824L58.6007 65.9337C68.8498 71.4002 81.1556 71.4002 91.4107 65.9337L100.147 83.3824C93.323 86.5123 87.6985 91.7789 84.136 98.3886C80.5737 104.998 79.2676 112.589 80.4051 120.012H69.6064ZM115.002 145.001C107.047 145.001 99.4163 141.84 93.7915 136.217C88.167 130.595 85.0047 122.966 85.0047 115.013C85.0047 107.06 88.167 99.4323 93.7915 93.8094C99.4159 88.1868 107.047 85.0255 115.002 85.0255C122.958 85.0255 130.589 88.1868 136.213 93.8094C141.838 99.432 145 107.06 145 115.013C144.994 122.966 141.825 130.588 136.207 136.211C130.583 141.827 122.958 144.995 115.002 145.001ZM75.0059 31.2982C79.0492 31.2982 82.699 28.8618 84.2425 25.1258C85.7924 21.3899 84.9362 17.0917 82.0739 14.2366C79.2178 11.3752 74.9182 10.5194 71.1811 12.0687C67.444 13.6118 65.0066 17.2603 65.0066 21.3022C65.0128 26.8187 69.4876 31.292 75.0059 31.2982ZM75.0059 16.3045C77.0307 16.3045 78.8492 17.5227 79.6242 19.3907C80.3991 21.2587 79.9679 23.4078 78.543 24.8384C77.1119 26.2628 74.9621 26.6939 73.0936 25.9192C71.225 25.1445 70.0063 23.3265 70.0063 21.3024C70.0126 18.541 72.2436 16.3107 75.0059 16.3045ZM92.5052 46.292C92.5052 39.2887 84.8183 33.7972 75.0059 33.7972C65.1935 33.7972 57.5066 39.2887 57.5066 46.292C57.5066 53.2953 65.1935 58.7867 75.0059 58.7867C84.8183 58.7867 92.5052 53.2953 92.5052 46.292ZM62.5078 46.292C62.5078 42.2311 68.2322 38.7951 75.0067 38.7951C81.7811 38.7951 87.5056 42.2311 87.5056 46.292C87.5056 50.3528 81.7811 53.7888 75.0067 53.7888C68.2322 53.7888 62.5078 50.3528 62.5078 46.292Z" fill="url(#paint0_linear_343_944)"/>
</g>
<defs>
<linearGradient id="paint0_linear_343_944" x1="75" y1="0" x2="75" y2="150" gradientUnits="userSpaceOnUse">
<stop stop-color="#4758F3"/>
<stop offset="1" stop-color="#F15AD9"/>
</linearGradient>
<clipPath id="clip0_343_944">
<rect width="150" height="150" fill="white"/>
</clipPath>
</defs>
</svg>
